# Blender3D v249 OBJ File: 
# www.blender3d.org
v -5.000000 7.499999 -10.000000
v -5.000000 -2.499999 -10.000000
v -5.000000 -2.499998 0.000000
v -5.000000 7.500001 -0.000002
vt 0.000000 0.000000
vt 1.000000 0.000000
vt 1.000000 1.000000
vt 0.000000 1.000000
vn 1.000000 0.000000 0.000000
usemtl (null)
s 1
f 1/1/1 4/2/1 3/3/1
f 1/1/1 3/3/1 2/4/1
v 5.000000 7.499999 -10.000000
v 5.000000 -2.499999 -10.000000
v -5.000000 -2.499998 -10.000000
v -4.999998 7.500001 -10.000000
vt 0.000000 0.000000
vt 1.000000 0.000000
vt 1.000000 1.000000
vt 0.000000 1.000000
vn 0.000000 0.000000 1.000000
usemtl (null)
s 1
f 5/5/2 8/6/2 7/7/2
f 5/5/2 7/7/2 6/8/2
v 5.000000 -2.500000 -0.000001
v 5.000000 -2.500000 -9.999999
v -5.000000 -2.500000 -9.999998
v -4.999998 -2.500000 0.000001
vt 1.000000 1.000000
vt 0.000000 1.000000
vt 0.000000 0.000000
vt 1.000000 0.000000
vn 0.000000 1.000000 0.000000
usemtl (null)
s 1
f 9/9/3 10/10/3 11/11/3
f 9/9/3 11/11/3 12/12/3
